<?xml version="1.0" standalone="no"?>
<!DOCTYPE svg PUBLIC "-//W3C//DTD SVG 20010904//EN"
 "http://www.w3.org/TR/2001/REC-SVG-20010904/DTD/svg10.dtd">
<svg version="1.0" xmlns="http://www.w3.org/2000/svg"
 width="1200.000000pt" height="1200.000000pt" viewBox="0 0 1200.000000 1200.000000"
 preserveAspectRatio="xMidYMid meet">

<g transform="translate(0.000000,1200.000000) scale(0.100000,-0.100000)"
fill="#000000" stroke="none">
<path d="M3125 10490 c-213 -25 -396 -173 -467 -378 l-23 -67 0 -1045 0 -1045
23 -67 c60 -173 194 -301 382 -364 53 -18 129 -19 1693 -22 l1637 -3 -2 1278
-3 1278 -26 67 c-68 174 -194 292 -379 354 -52 18 -121 19 -1415 20 -748 1
-1387 -2 -1420 -6z"/>
<path d="M6380 6000 l0 -1501 1638 3 c1563 3 1639 4 1692 22 188 63 322 191
382 364 l23 67 0 1045 0 1045 -23 67 c-60 173 -194 301 -382 364 -53 18 -129
19 -1692 22 l-1638 3 0 -1501z"/>
<path d="M3125 4490 c-212 -24 -396 -173 -467 -378 l-23 -67 0 -1045 0 -1045
23 -67 c61 -176 200 -307 388 -365 56 -17 129 -18 1454 -18 1325 0 1398 1
1454 18 94 29 169 72 234 132 71 65 115 131 151 223 l26 67 3 1278 2 1277
-1592 -1 c-876 -1 -1620 -5 -1653 -9z"/>
</g>
</svg>
